<?xml version="1.0" encoding="utf-8"?>
<!-- Svg Vector Icons : http://www.onlinewebfonts.com/icon -->
<!DOCTYPE svg PUBLIC "-//W3C//DTD SVG 1.1//EN" "http://www.w3.org/Graphics/SVG/1.1/DTD/svg11.dtd">
<svg version="1.1" xmlns="http://www.w3.org/2000/svg" xmlns:xlink="http://www.w3.org/1999/xlink" x="0px" y="0px" viewBox="0 0 1000 1000" enable-background="new 0 0 1000 1000" xml:space="preserve">
<metadata> Svg Vector Icons : http://www.onlinewebfonts.com/icon </metadata>
<g><path d="M928.5,444.9c-1-17.9-5.5-35.7-8.3-53.5c-5.6,13.1-8.2,26-10.9,38.9c-21.5,105.3-93.5,167.1-201.1,173.9c-9.1,0.6-20.1,6.2-26.3,13c-22.4,24.6-34.7,29.1-65.6,16.3c-19-7.9-37.3-12.3-58.3-7.9c-29,6-42.9-0.9-55.6-28.3c-9.3-20.2-23.9-31-44.3-37.2C405,544,368.2,508.8,349,457.5c-37.3-99.9-11.8-190.1,47.1-274c6.1-8.7,14.2-13.5,25.1-8c14.6,7.4,27,1.7,39.2-6.4c22.7-15,46-29.3,68.3-44.9c6.4-4.5,13.4-11.8,15-19c8.1-37.7-29.5-91-67.8-94.8c-41.3-4.1-71.4,16.5-92.7,50.1c-17.5,27.5-14.6,55.8,3,82.4c7.6,11.4,6.9,19.4-4.5,27.5c-10.4,7.3-20,15.9-29.7,24.2c-63.1,54-96.5,122.5-99,205.7c-0.8,25.5,0.5,51.3-2.1,76.6c-4.5,44.4-10.2,88.5,5.1,132c1.4,4,2.1,8.3,2.4,12.5c0.9,12.5-4.9,15.5-15.6,10.2c-4.3-2.2-8.3-5-12.3-7.8c-38.5-27.3-64.3-64.6-83.1-106.9c-47.1-106.2-43.2-208.2,27.5-303.8c9.9-13.4,21.8-25.2,32.7-37.8c-45.2,23.8-77.3,60.6-101.5,103.9c-27.9,49.8-42.8,103.8-39.5,161.2c4,69.1,5.8,138.7,16.8,206.7c7.6,46.7,27,92,45.2,136.2c22.4,54.6,62.9,86.9,125,86.6c49.6-0.2,60.2-14.3,46.3-61.2c-6.2-20.9-10.6-42.5-14.1-64c-1-5.9,4.3-12.8,6.7-19.2c4.9,4.7,11.5,8.6,14.4,14.3c10,20.2,18.5,41.1,28,61.5c25,53.4,48.1,108.3,96.5,146.3c53.2,41.8,112.4,52.8,176.8,32.2c24-7.7,28.5-17.4,17.7-39.8c-17.3-36.2-26.5-74.4-30.6-113.9c-3.8-36.8-3.1-73.7,16.1-106.5c6-10.2,19.2-20.7,30.3-22.1c14.7-1.9,23.8,13.7,24.9,26.9c2.7,31.8,4,64,2.7,95.9c-1,24.7-8.7,49.1-9.7,73.8c-1.3,31,18.4,54.8,45.3,53c50.2-3.5,95.4-19.4,121.8-67.3c24.7-44.8,44.6-91.5,61.1-140.2C920.6,643.7,934.1,545.7,928.5,444.9z"/><path d="M886.7,71.8c-24.3-15-51-17.1-76.4-3.3c-26.1,14.1-40.3,37.5-46.5,71.4c3.8,5.6,7.9,15,14.8,21.1c20.9,18.3,44,34.1,64.1,53.1c14.4,13.7,28.9,15.8,44.4,6.7c22.2-12.9,38.6-31.7,44.7-57.3C939.8,130.1,922.3,93.7,886.7,71.8z"/><path d="M753.3,366.5c-16.4-8.5-33.9-10-47.4,3.6c-15.2,15.4-32.8,33.8-25.3,56.9c8.5,26.2,22.7,50.9,36.6,74.9c5,8.6,16.7,13.3,21,16.6c24.5-1.2,39-8.1,48.7-22.8C812.5,457.3,794.3,388,753.3,366.5z"/><path d="M548.6,355.9c-9.9-21.8-29.9-30.5-52.6-22.8c-38.3,12.9-63.3,47.9-63.3,88.6c0,29.1,12.3,49.9,33.6,56.8c20.4,6.6,36.9-1.4,56-27.1c5.1-6.8,9.6-14.4,15.9-19.8C564.3,409.2,561.1,383.3,548.6,355.9z"/><path d="M631.8,552.5c-19.9-5-40.3-7.9-62-11.8c-7.1,2.2-15.8,3.5-22.8,7.5c-7.8,4.5-8.7,12.6,0.2,17.1c26.6,13.8,51.7,38.5,84.5,13.7c5.3-4,10.3-8.5,15.4-12.7C642,561.5,637.6,553.9,631.8,552.5z"/><path d="M928.5,444.9c-1-17.9-5.5-35.7-8.3-53.5c-5.6,13.1-8.2,26-10.9,38.9c-21.5,105.3-93.5,167.1-201.1,173.9c-9.1,0.6-20.1,6.2-26.3,13c-22.4,24.6-34.7,29.1-65.6,16.3c-19-7.9-37.3-12.3-58.3-7.9c-29,6-42.9-0.9-55.6-28.3c-9.3-20.2-23.9-31-44.3-37.2C405,544,368.2,508.8,349,457.5c-37.3-99.9-11.8-190.1,47.1-274c6.1-8.7,14.2-13.5,25.1-8c14.6,7.4,27,1.7,39.2-6.4c22.7-15,46-29.3,68.3-44.9c6.4-4.5,13.4-11.8,15-19c8.1-37.7-29.5-91-67.8-94.8c-41.3-4.1-71.4,16.5-92.7,50.1c-17.5,27.5-14.6,55.8,3,82.4c7.6,11.4,6.9,19.4-4.5,27.5c-10.4,7.3-20,15.9-29.7,24.2c-63.1,54-96.5,122.5-99,205.7c-0.8,25.5,0.5,51.3-2.1,76.6c-4.5,44.4-10.2,88.5,5.1,132c1.4,4,2.1,8.3,2.4,12.5c0.9,12.5-4.9,15.5-15.6,10.2c-4.3-2.2-8.3-5-12.3-7.8c-38.5-27.3-64.3-64.6-83.1-106.9c-47.1-106.2-43.2-208.2,27.5-303.8c9.9-13.4,21.8-25.2,32.7-37.8c-45.2,23.8-77.3,60.6-101.5,103.9c-27.9,49.8-42.8,103.8-39.5,161.2c4,69.1,5.8,138.7,16.8,206.7c7.6,46.7,27,92,45.2,136.2c22.4,54.6,62.9,86.9,125,86.6c49.6-0.2,60.2-14.3,46.3-61.2c-6.2-20.9-10.6-42.5-14.1-64c-1-5.9,4.3-12.8,6.7-19.2c4.9,4.7,11.5,8.6,14.4,14.3c10,20.2,18.5,41.1,28,61.5c25,53.4,48.1,108.3,96.5,146.3c53.2,41.8,112.4,52.8,176.8,32.2c24-7.7,28.5-17.4,17.7-39.8c-17.3-36.2-26.5-74.4-30.6-113.9c-3.8-36.8-3.1-73.7,16.1-106.5c6-10.2,19.2-20.7,30.3-22.1c14.7-1.9,23.8,13.7,24.9,26.9c2.7,31.8,4,64,2.7,95.9c-1,24.7-8.7,49.1-9.7,73.8c-1.3,31,18.4,54.8,45.3,53c50.2-3.5,95.4-19.4,121.8-67.3c24.7-44.8,44.6-91.5,61.1-140.2C920.6,643.7,934.1,545.7,928.5,444.9z"/><path d="M536.2,634.3c6.3,25.9,28.6,40.4,58.7,39.2c23.9-0.9,37.1-10,39.5-26.2C602.2,643,570,638.7,536.2,634.3z"/><path d="M886.7,71.8c-24.3-15-51-17.1-76.4-3.3c-26.1,14.1-40.3,37.5-46.5,71.4c3.8,5.6,7.9,15,14.8,21.1c20.9,18.3,44,34.1,64.1,53.1c14.4,13.7,28.9,15.8,44.4,6.7c22.2-12.9,38.6-31.7,44.7-57.3C939.8,130.1,922.3,93.7,886.7,71.8z"/><path d="M753.3,366.5c-16.4-8.5-33.9-10-47.4,3.6c-15.2,15.4-32.8,33.8-25.3,56.9c8.5,26.2,22.7,50.9,36.6,74.9c5,8.6,16.7,13.3,21,16.6c24.5-1.2,39-8.1,48.7-22.8C812.5,457.3,794.3,388,753.3,366.5z"/><path d="M548.6,355.9c-9.9-21.8-29.9-30.5-52.6-22.8c-38.3,12.9-63.3,47.9-63.3,88.6c0,29.1,12.3,49.9,33.6,56.8c20.4,6.6,36.9-1.4,56-27.1c5.1-6.8,9.6-14.4,15.9-19.8C564.3,409.2,561.1,383.3,548.6,355.9z"/><path d="M631.8,552.5c-19.9-5-40.3-7.9-62-11.8c-7.1,2.2-15.8,3.5-22.8,7.5c-7.8,4.5-8.7,12.6,0.2,17.1c26.6,13.8,51.7,38.5,84.5,13.7c5.3-4,10.3-8.5,15.4-12.7C642,561.5,637.6,553.9,631.8,552.5z"/><path d="M536.2,634.3c6.3,25.9,28.6,40.4,58.7,39.2c23.9-0.9,37.1-10,39.5-26.2C602.2,643,570,638.7,536.2,634.3z"/></g>
</svg>